<svg width="21" height="25" viewBox="0 0 21 25" fill="none" xmlns="http://www.w3.org/2000/svg">
<path d="M15.3925 24.7181V22.558C13.6549 24.2956 12.0113 25 9.05271 25C6.09415 25 4.12191 24.2956 2.66617 22.8396C1.44505 21.5718 0.787598 19.7404 0.787598 17.7209C0.787598 13.7294 3.55842 10.8645 9.00576 10.8645H15.2986V9.17412C15.2986 6.16863 13.7959 4.71289 10.0859 4.71289C7.45606 4.71289 6.18815 5.3233 4.87328 7.01396L1.72684 4.0554C3.98104 1.42554 6.32907 0.627121 10.2738 0.627121C16.8013 0.627121 20.0887 3.39777 20.0887 8.79832V24.7181H15.3925ZM15.2986 14.1989H9.71012C6.89252 14.1989 5.43678 15.4669 5.43678 17.627C5.43678 19.7874 6.7986 21.0083 9.80408 21.0083C11.6357 21.0083 12.9975 20.8673 14.2653 19.6464C14.9698 18.9421 15.2986 17.8149 15.2986 16.1242V14.1989H15.2986Z" fill="#DD6956"/>
</svg>
