<svg width="25" height="34" viewBox="0 0 25 34" fill="none" xmlns="http://www.w3.org/2000/svg">
<path d="M12.4449 33.9998C8.96967 33.9998 5.96414 32.7316 3.66307 30.4306C0.37593 27.1435 0.422888 23.4335 0.422888 16.9998C0.422888 10.5662 0.37593 6.85634 3.66307 3.56898C5.96414 1.26786 8.96962 0 12.4449 0C18.5968 0 23.1988 3.61593 24.373 10.2844H19.2072C18.4089 6.90334 16.1548 4.55522 12.4449 4.55522C10.4724 4.55522 8.68805 5.30655 7.51384 6.57446C5.87044 8.35908 5.49465 10.2844 5.49465 16.9998C5.49465 23.7151 5.87044 25.6407 7.51384 27.4251C8.68805 28.6931 10.4724 29.4445 12.4449 29.4445C16.1548 29.4445 18.4559 27.0964 19.2543 23.7151H24.373C23.2458 30.3836 18.5029 33.9998 12.4449 33.9998Z" fill="#DD6956"/>
</svg>
