<svg width="31" height="33" viewBox="0 0 31 33" fill="none" xmlns="http://www.w3.org/2000/svg">
<path d="M7.96771 10.1907H3.09802V15.0809H7.96771V10.1907Z" stroke="#DD6956" stroke-miterlimit="10"/>
<path d="M14.2778 10.1907H9.40808V15.0809H14.2778V10.1907Z" stroke="#DD6956" stroke-miterlimit="10"/>
<path d="M20.5192 10.1907H15.6495V15.0809H20.5192V10.1907Z" stroke="#DD6956" stroke-miterlimit="10"/>
<path d="M26.8292 10.1907H21.9595V15.0809H26.8292V10.1907Z" stroke="#DD6956" stroke-miterlimit="10"/>
<path d="M7.96771 16.5007H3.09802V21.391H7.96771V16.5007Z" stroke="#DD6956" stroke-miterlimit="10"/>
<path d="M14.2778 16.5007H9.40808V21.391H14.2778V16.5007Z" stroke="#DD6956" stroke-miterlimit="10"/>
<path d="M20.5192 16.5007H15.6495V21.391H20.5192V16.5007Z" stroke="#DD6956" stroke-miterlimit="10"/>
<path d="M26.8292 16.5007H21.9595V21.391H26.8292V16.5007Z" stroke="#DD6956" stroke-miterlimit="10"/>
<path d="M7.96771 22.7421H3.09802V27.6324H7.96771V22.7421Z" stroke="#DD6956" stroke-miterlimit="10"/>
<path d="M14.2778 22.7421H9.40808V27.6324H14.2778V22.7421Z" stroke="#DD6956" stroke-miterlimit="10"/>
<path d="M20.5192 22.7421H15.6495V27.6324H20.5192V22.7421Z" stroke="#DD6956" stroke-miterlimit="10"/>
<path d="M26.8292 22.7421H21.9595V27.6324H26.8292V22.7421Z" stroke="#DD6956" stroke-miterlimit="10"/>
<path d="M20.2448 5.18382H10.917" stroke="#DD6956" stroke-width="2" stroke-miterlimit="10"/>
<mask id="path-14-outside-1" maskUnits="userSpaceOnUse" x="0" y="3.18382" width="31" height="30" fill="black">
<rect fill="white" y="3.18382" width="31" height="30"/>
<path d="M7.55621 5.18382H5.63577C5.15257 5.18373 4.6742 5.27998 4.22864 5.46694C3.78308 5.6539 3.37926 5.92781 3.04079 6.27266C2.70233 6.61751 2.43601 7.02637 2.25742 7.47535C2.07882 7.92434 1.99153 8.40442 2.00065 8.88753V26.583C1.99153 27.0661 2.07882 27.5462 2.25742 27.9952C2.43601 28.4442 2.70233 28.853 3.04079 29.1979C3.37926 29.5427 3.78308 29.8166 4.22864 30.0036C4.6742 30.1906 5.15257 30.2868 5.63577 30.2867H24.4972C25.4795 30.2867 26.4216 29.8965 27.1162 29.2019C27.8107 28.5074 28.2009 27.5653 28.2009 26.583V8.88753C28.2009 7.90524 27.8107 6.96319 27.1162 6.26861C26.4216 5.57403 25.4795 5.18382 24.4972 5.18382H23.6056"/>
</mask>
<path d="M5.63577 5.18382L5.63541 7.18382H5.63577V5.18382ZM2.00065 8.88753H4.00065V8.86866L4.00029 8.84979L2.00065 8.88753ZM2.00065 26.583L4.00029 26.6208L4.00065 26.6019V26.583H2.00065ZM5.63577 30.2867V28.2867H5.63541L5.63577 30.2867ZM24.4972 5.18382V3.18382V5.18382ZM7.55621 3.18382H5.63577V7.18382H7.55621V3.18382ZM5.63612 3.18382C4.88708 3.18369 4.14552 3.33289 3.45481 3.62271L5.00247 7.31117C5.20289 7.22708 5.41806 7.18378 5.63541 7.18382L5.63612 3.18382ZM3.45481 3.62271C2.7641 3.91252 2.13811 4.33714 1.61342 4.87172L4.46816 7.67359C4.62041 7.51847 4.80205 7.39527 5.00247 7.31117L3.45481 3.62271ZM1.61342 4.87172C1.08874 5.4063 0.675902 6.04013 0.399045 6.73613L4.11579 8.21458C4.19612 8.01262 4.31592 7.82871 4.46816 7.67359L1.61342 4.87172ZM0.399045 6.73613C0.122188 7.43213 -0.0131297 8.17635 0.00100315 8.92526L4.00029 8.84979C3.99619 8.63248 4.03545 8.41654 4.11579 8.21458L0.399045 6.73613ZM0.000647187 8.88753V26.583H4.00065V8.88753H0.000647187ZM0.00100315 26.5453C-0.0131297 27.2942 0.122188 28.0384 0.399045 28.7344L4.11579 27.256C4.03545 27.054 3.99619 26.8381 4.00029 26.6208L0.00100315 26.5453ZM0.399045 28.7344C0.675903 29.4304 1.08874 30.0642 1.61342 30.5988L4.46816 27.797C4.31591 27.6418 4.19612 27.4579 4.11579 27.256L0.399045 28.7344ZM1.61342 30.5988C2.13811 31.1334 2.7641 31.558 3.45481 31.8478L5.00247 28.1594C4.80205 28.0753 4.62041 27.9521 4.46816 27.797L1.61342 30.5988ZM3.45481 31.8478C4.14551 32.1377 4.88707 32.2869 5.63612 32.2867L5.63541 28.2867C5.41807 28.2868 5.20289 28.2435 5.00247 28.1594L3.45481 31.8478ZM5.63577 32.2867H24.4972V28.2867H5.63577V32.2867ZM24.4972 32.2867C26.01 32.2867 27.4607 31.6858 28.5304 30.6161L25.7019 27.7877C25.3824 28.1072 24.9491 28.2867 24.4972 28.2867V32.2867ZM28.5304 30.6161C29.6 29.5465 30.2009 28.0957 30.2009 26.583H26.2009C26.2009 27.0349 26.0214 27.4682 25.7019 27.7877L28.5304 30.6161ZM30.2009 26.583V8.88753H26.2009V26.583H30.2009ZM30.2009 8.88753C30.2009 7.37481 29.6 5.92405 28.5304 4.8544L25.7019 7.68282C26.0214 8.00233 26.2009 8.43567 26.2009 8.88753H30.2009ZM28.5304 4.8544C27.4607 3.78474 26.01 3.18382 24.4972 3.18382V7.18382C24.9491 7.18382 25.3824 7.36332 25.7019 7.68282L28.5304 4.8544ZM24.4972 3.18382H23.6056V7.18382H24.4972V3.18382Z" fill="#DD6956" mask="url(#path-14-outside-1)"/>
<path d="M10.9169 2.71468C10.9169 1.76769 10.1646 1 9.23654 1C8.30849 1 7.55615 1.76769 7.55615 2.71468V6.82305C7.55615 7.77004 8.30849 8.53773 9.23654 8.53773C10.1646 8.53773 10.9169 7.77004 10.9169 6.82305V2.71468Z" stroke="#DD6956" stroke-width="2" stroke-miterlimit="10"/>
<path d="M23.6056 2.71468C23.6056 1.76769 22.8533 1 21.9253 1C20.9972 1 20.2449 1.76769 20.2449 2.71468V6.82305C20.2449 7.77004 20.9972 8.53773 21.9253 8.53773C22.8533 8.53773 23.6056 7.77004 23.6056 6.82305V2.71468Z" stroke="#DD6956" stroke-width="2" stroke-miterlimit="10"/>
</svg>
