<svg width="31" height="30" viewBox="0 0 31 30" fill="none" xmlns="http://www.w3.org/2000/svg">
<mask id="path-1-outside-1" maskUnits="userSpaceOnUse" x="0" y="0.183823" width="31" height="30" fill="black">
<rect fill="white" y="0.183823" width="31" height="30"/>
<path d="M7.55621 2.18382H5.63577C5.15257 2.18374 4.6742 2.27999 4.22864 2.46694C3.78308 2.6539 3.37926 2.92781 3.04079 3.27266C2.70233 3.61751 2.43601 4.02638 2.25742 4.47536C2.07882 4.92434 1.99153 5.40442 2.00065 5.88753V23.583C1.99153 24.0661 2.07882 24.5462 2.25742 24.9952C2.43601 25.4442 2.70233 25.853 3.04079 26.1979C3.37926 26.5427 3.78308 26.8167 4.22864 27.0036C4.6742 27.1906 5.15257 27.2868 5.63577 27.2867H24.4972C25.4795 27.2867 26.4216 26.8965 27.1162 26.2019C27.8107 25.5074 28.2009 24.5653 28.2009 23.583V5.88753C28.2009 4.90525 27.8107 3.96319 27.1162 3.26861C26.4216 2.57403 25.4795 2.18382 24.4972 2.18382H23.6056"/>
</mask>
<path d="M5.63577 2.18382L5.63541 4.18382H5.63577V2.18382ZM2.00065 5.88753H4.00065V5.86866L4.00029 5.84979L2.00065 5.88753ZM2.00065 23.583L4.00029 23.6208L4.00065 23.6019V23.583H2.00065ZM5.63577 27.2867V25.2867H5.63541L5.63577 27.2867ZM24.4972 2.18382V0.183823V2.18382ZM7.55621 0.183823H5.63577V4.18382H7.55621V0.183823ZM5.63612 0.183823C4.88708 0.183689 4.14552 0.332893 3.45481 0.62271L5.00247 4.31117C5.20289 4.22708 5.41806 4.18378 5.63541 4.18382L5.63612 0.183823ZM3.45481 0.62271C2.7641 0.912527 2.13811 1.33714 1.61342 1.87172L4.46816 4.67359C4.62041 4.51848 4.80205 4.39527 5.00247 4.31117L3.45481 0.62271ZM1.61342 1.87172C1.08874 2.4063 0.675902 3.04013 0.399045 3.73613L4.11579 5.21458C4.19612 5.01263 4.31592 4.82871 4.46816 4.67359L1.61342 1.87172ZM0.399045 3.73613C0.122188 4.43214 -0.0131297 5.17635 0.00100315 5.92527L4.00029 5.84979C3.99619 5.63248 4.03545 5.41654 4.11579 5.21458L0.399045 3.73613ZM0.000647187 5.88753V23.583H4.00065V5.88753H0.000647187ZM0.00100315 23.5453C-0.0131297 24.2942 0.122188 25.0384 0.399045 25.7344L4.11579 24.256C4.03545 24.054 3.99619 23.8381 4.00029 23.6208L0.00100315 23.5453ZM0.399045 25.7344C0.675903 26.4304 1.08874 27.0642 1.61342 27.5988L4.46816 24.797C4.31591 24.6418 4.19612 24.4579 4.11579 24.256L0.399045 25.7344ZM1.61342 27.5988C2.13811 28.1334 2.7641 28.558 3.45481 28.8478L5.00247 25.1594C4.80205 25.0753 4.62041 24.9521 4.46816 24.797L1.61342 27.5988ZM3.45481 28.8478C4.14551 29.1377 4.88707 29.2869 5.63612 29.2867L5.63541 25.2867C5.41807 25.2868 5.20289 25.2435 5.00247 25.1594L3.45481 28.8478ZM5.63577 29.2867H24.4972V25.2867H5.63577V29.2867ZM24.4972 29.2867C26.01 29.2867 27.4607 28.6858 28.5304 27.6161L25.7019 24.7877C25.3824 25.1072 24.9491 25.2867 24.4972 25.2867V29.2867ZM28.5304 27.6161C29.6 26.5465 30.2009 25.0957 30.2009 23.583H26.2009C26.2009 24.0349 26.0214 24.4682 25.7019 24.7877L28.5304 27.6161ZM30.2009 23.583V5.88753H26.2009V23.583H30.2009ZM30.2009 5.88753C30.2009 4.37481 29.6 2.92405 28.5304 1.8544L25.7019 4.68283C26.0214 5.00233 26.2009 5.43568 26.2009 5.88753H30.2009ZM28.5304 1.8544C27.4607 0.784747 26.01 0.183823 24.4972 0.183823V4.18382C24.9491 4.18382 25.3824 4.36332 25.7019 4.68283L28.5304 1.8544ZM24.4972 0.183823H23.6056V4.18382H24.4972V0.183823Z" fill="#DD6956" mask="url(#path-1-outside-1)"/>
</svg>
