<svg width="29" height="28" viewBox="0 0 29 28" fill="none" xmlns="http://www.w3.org/2000/svg">
<path d="M20.629 23.3817H20.7823L26.6096 25.9842L24.0793 19.9613C24.0026 19.8125 24.0793 19.7382 24.0793 19.6638C25.2871 17.7367 25.9238 15.5241 25.9195 13.2691C25.94 10.0476 24.6452 6.94909 22.3179 4.65031C19.9906 2.35153 16.8199 1.03923 13.4982 1C11.8469 1.00974 10.2137 1.33481 8.6919 1.95666C7.17011 2.57851 5.78953 3.48496 4.62898 4.62426C3.46843 5.76355 2.55064 7.11337 1.92802 8.59665C1.3054 10.0799 0.990135 11.6676 1.00024 13.2691C0.990135 14.8705 1.3054 16.4582 1.92802 17.9415C2.55064 19.4247 3.46843 20.7746 4.62898 21.9138C5.78953 23.0531 7.17011 23.9596 8.6919 24.5814C10.2137 25.2033 11.8469 25.5284 13.4982 25.5381C15.9894 25.5564 18.4259 24.8293 20.4756 23.4561L20.629 23.3817Z" stroke="#4497BD" stroke-width="2" stroke-miterlimit="10"/>
</svg>
