<svg width="70" height="26" viewBox="0 0 70 26" fill="none" xmlns="http://www.w3.org/2000/svg">
<rect width="70" height="20" rx="10" fill="#4497BD"/>
<path d="M16.2305 10.6318C16.1751 11.3968 15.8919 11.999 15.3809 12.4385C14.873 12.8779 14.2025 13.0977 13.3691 13.0977C12.4577 13.0977 11.7399 12.7917 11.2158 12.1797C10.695 11.5645 10.4346 10.7214 10.4346 9.65039V9.21582C10.4346 8.53223 10.555 7.93001 10.7959 7.40918C11.0368 6.88835 11.3802 6.48958 11.8262 6.21289C12.2754 5.93294 12.7962 5.79297 13.3887 5.79297C14.209 5.79297 14.8698 6.0127 15.3711 6.45215C15.8724 6.8916 16.1621 7.50846 16.2402 8.30273H14.7754C14.7396 7.84375 14.611 7.51172 14.3896 7.30664C14.1715 7.09831 13.8379 6.99414 13.3887 6.99414C12.9004 6.99414 12.5342 7.16992 12.29 7.52148C12.0492 7.86979 11.9255 8.41178 11.9189 9.14746V9.68457C11.9189 10.4528 12.0345 11.0143 12.2656 11.3691C12.5 11.724 12.8678 11.9014 13.3691 11.9014C13.8216 11.9014 14.1585 11.7988 14.3799 11.5938C14.6045 11.3854 14.7331 11.0648 14.7656 10.6318H16.2305ZM16.8799 10.3096C16.8799 9.78548 16.9808 9.31836 17.1826 8.9082C17.3844 8.49805 17.6742 8.18066 18.0518 7.95605C18.4326 7.73145 18.8737 7.61914 19.375 7.61914C20.0879 7.61914 20.6689 7.83724 21.1182 8.27344C21.5706 8.70964 21.8229 9.30208 21.875 10.0508L21.8848 10.4121C21.8848 11.2227 21.6585 11.8737 21.2061 12.3652C20.7536 12.8535 20.1465 13.0977 19.3848 13.0977C18.623 13.0977 18.0143 12.8535 17.5586 12.3652C17.1061 11.877 16.8799 11.2129 16.8799 10.373V10.3096ZM18.291 10.4121C18.291 10.9134 18.3854 11.2975 18.5742 11.5645C18.763 11.8281 19.0332 11.96 19.3848 11.96C19.7266 11.96 19.9935 11.8298 20.1855 11.5693C20.3776 11.3057 20.4736 10.8857 20.4736 10.3096C20.4736 9.81803 20.3776 9.43717 20.1855 9.16699C19.9935 8.89681 19.7233 8.76172 19.375 8.76172C19.0299 8.76172 18.763 8.89681 18.5742 9.16699C18.3854 9.43392 18.291 9.84896 18.291 10.4121ZM24.0527 7.7168L24.0967 8.32715C24.4743 7.85514 24.9805 7.61914 25.6152 7.61914C26.1751 7.61914 26.5918 7.78353 26.8652 8.1123C27.1387 8.44108 27.2786 8.93262 27.2852 9.58691V13H25.874V9.62109C25.874 9.32161 25.8089 9.10514 25.6787 8.97168C25.5485 8.83496 25.332 8.7666 25.0293 8.7666C24.6322 8.7666 24.3343 8.93587 24.1357 9.27441V13H22.7246V7.7168H24.0527ZM28.7012 13V8.75195H27.915V7.7168H28.7012V7.47266C28.7077 6.80859 28.9111 6.29753 29.3115 5.93945C29.7152 5.57812 30.2832 5.39746 31.0156 5.39746C31.4551 5.39746 31.9889 5.49349 32.6172 5.68555L32.4121 6.85254C32.0931 6.75814 31.8457 6.69792 31.6699 6.67188C31.4941 6.64258 31.3053 6.62793 31.1035 6.62793C30.446 6.62793 30.1172 6.91927 30.1172 7.50195V7.7168H31.1572V8.75195H30.1172V13H28.7012ZM33.2764 13H31.8604V7.7168H33.2764V13ZM37.4121 9.04004C37.2201 9.014 37.0508 9.00098 36.9043 9.00098C36.3704 9.00098 36.0205 9.18164 35.8545 9.54297V13H34.4434V7.7168H35.7764L35.8154 8.34668C36.0986 7.86165 36.4909 7.61914 36.9922 7.61914C37.1484 7.61914 37.2949 7.6403 37.4316 7.68262L37.4121 9.04004ZM39.4189 7.7168L39.4629 8.30762C39.8372 7.84863 40.3434 7.61914 40.9814 7.61914C41.6618 7.61914 42.1289 7.8877 42.3828 8.4248C42.7539 7.8877 43.2829 7.61914 43.9697 7.61914C44.5426 7.61914 44.9691 7.78678 45.249 8.12207C45.529 8.4541 45.6689 8.9554 45.6689 9.62598V13H44.2529V9.63086C44.2529 9.33138 44.1943 9.11328 44.0771 8.97656C43.96 8.83659 43.7533 8.7666 43.457 8.7666C43.0339 8.7666 42.7409 8.96842 42.5781 9.37207L42.583 13H41.1719V9.63574C41.1719 9.32975 41.1117 9.1084 40.9912 8.97168C40.8708 8.83496 40.6657 8.7666 40.376 8.7666C39.9756 8.7666 39.6859 8.93262 39.5068 9.26465V13H38.0957V7.7168H39.4189ZM49.1895 13.0977C48.4147 13.0977 47.7832 12.86 47.2949 12.3848C46.8099 11.9095 46.5674 11.2764 46.5674 10.4854V10.3486C46.5674 9.81803 46.6699 9.3444 46.875 8.92773C47.0801 8.50781 47.3698 8.18555 47.7441 7.96094C48.1217 7.73307 48.5514 7.61914 49.0332 7.61914C49.7559 7.61914 50.3239 7.84701 50.7373 8.30273C51.154 8.75846 51.3623 9.40462 51.3623 10.2412V10.8174H47.998C48.0436 11.1624 48.1803 11.4391 48.4082 11.6475C48.6393 11.8558 48.9307 11.96 49.2822 11.96C49.8258 11.96 50.2507 11.763 50.5566 11.3691L51.25 12.1455C51.0384 12.445 50.752 12.6794 50.3906 12.8486C50.0293 13.0146 49.6289 13.0977 49.1895 13.0977ZM49.0283 8.76172C48.7484 8.76172 48.5205 8.85612 48.3447 9.04492C48.1722 9.23372 48.0615 9.50391 48.0127 9.85547H49.9756V9.74316C49.9691 9.43066 49.8844 9.18978 49.7217 9.02051C49.5589 8.84798 49.3278 8.76172 49.0283 8.76172ZM51.9482 10.3193C51.9482 9.49577 52.1322 8.83984 52.5 8.35156C52.8711 7.86328 53.3773 7.61914 54.0186 7.61914C54.5329 7.61914 54.9577 7.8112 55.293 8.19531V5.5H56.709V13H55.4346L55.3662 12.4385C55.0146 12.8779 54.5622 13.0977 54.0088 13.0977C53.387 13.0977 52.8874 12.8535 52.5098 12.3652C52.1354 11.8737 51.9482 11.1917 51.9482 10.3193ZM53.3594 10.4219C53.3594 10.9167 53.4456 11.2959 53.6182 11.5596C53.7907 11.8232 54.0413 11.9551 54.3701 11.9551C54.8063 11.9551 55.1139 11.7712 55.293 11.4033V9.31836C55.1172 8.95052 54.8128 8.7666 54.3799 8.7666C53.6995 8.7666 53.3594 9.31836 53.3594 10.4219ZM59.2383 10.8174H58.0664L57.9004 5.89062H59.4043L59.2383 10.8174ZM58.6523 11.5889C58.89 11.5889 59.0804 11.6589 59.2236 11.7988C59.3701 11.9388 59.4434 12.1178 59.4434 12.3359C59.4434 12.5508 59.3701 12.7282 59.2236 12.8682C59.0804 13.0081 58.89 13.0781 58.6523 13.0781C58.418 13.0781 58.2275 13.0081 58.0811 12.8682C57.9378 12.7282 57.8662 12.5508 57.8662 12.3359C57.8662 12.1211 57.9378 11.9437 58.0811 11.8037C58.2275 11.6605 58.418 11.5889 58.6523 11.5889Z" fill="#F2E2B0"/>
</svg>
