<svg width="29" height="29" viewBox="0 0 29 29" fill="none" xmlns="http://www.w3.org/2000/svg">
<circle cx="14.5" cy="14.5" r="14.5" fill="#DD6956"/>
<path d="M18.4973 20.2908H18.5871L22 22L20.4732 18.1068C20.4665 18.0399 20.4824 17.9726 20.5181 17.9169C21.2071 16.6782 21.5786 15.2708 21.5958 13.8338C21.6018 12.8113 21.4171 11.7976 21.0525 10.8505C20.6878 9.90341 20.1503 9.04154 19.4706 8.3141C18.7909 7.58666 17.9823 7.00789 17.091 6.61083C16.1998 6.21378 15.2432 6.00622 14.2761 6C13.311 6.00618 12.3566 6.21407 11.4679 6.61171C10.5791 7.00934 9.77346 7.58888 9.09733 8.31695C8.4212 9.04503 7.88793 9.90728 7.5282 10.8541C7.16847 11.8009 6.98938 12.8136 7.00124 13.8338C6.97661 15.2435 7.31892 16.6331 7.99076 17.851C8.66261 19.0688 9.63815 20.068 10.8108 20.7394C11.9834 21.4107 13.308 21.7284 14.6398 21.6576C15.9717 21.5869 17.2595 21.1305 18.3626 20.3383L18.4973 20.2908Z" fill="#F2E2B0"/>
</svg>
