<svg width="70" height="20" viewBox="0 0 70 20" fill="none" xmlns="http://www.w3.org/2000/svg">
<rect width="70" height="20" rx="10" fill="#DD6956"/>
<path d="M25.2393 11.0947H22.4268V14H20.9619V6.89062H25.5908V8.07715H22.4268V9.91309H25.2393V11.0947ZM26.0205 11.3096C26.0205 10.7855 26.1214 10.3184 26.3232 9.9082C26.5251 9.49805 26.8148 9.18066 27.1924 8.95605C27.5732 8.73145 28.0143 8.61914 28.5156 8.61914C29.2285 8.61914 29.8096 8.83724 30.2588 9.27344C30.7113 9.70964 30.9635 10.3021 31.0156 11.0508L31.0254 11.4121C31.0254 12.2227 30.7992 12.8737 30.3467 13.3652C29.8942 13.8535 29.2871 14.0977 28.5254 14.0977C27.7637 14.0977 27.1549 13.8535 26.6992 13.3652C26.2467 12.877 26.0205 12.2129 26.0205 11.373V11.3096ZM27.4316 11.4121C27.4316 11.9134 27.526 12.2975 27.7148 12.5645C27.9036 12.8281 28.1738 12.96 28.5254 12.96C28.8672 12.96 29.1341 12.8298 29.3262 12.5693C29.5182 12.3057 29.6143 11.8857 29.6143 11.3096C29.6143 10.818 29.5182 10.4372 29.3262 10.167C29.1341 9.89681 28.8639 9.76172 28.5156 9.76172C28.1706 9.76172 27.9036 9.89681 27.7148 10.167C27.526 10.4339 27.4316 10.849 27.4316 11.4121ZM33.3838 14H31.9678V6.5H33.3838V14ZM36.04 14H34.624V6.5H36.04V14ZM36.9873 11.3096C36.9873 10.7855 37.0882 10.3184 37.29 9.9082C37.4919 9.49805 37.7816 9.18066 38.1592 8.95605C38.54 8.73145 38.9811 8.61914 39.4824 8.61914C40.1953 8.61914 40.7764 8.83724 41.2256 9.27344C41.6781 9.70964 41.9303 10.3021 41.9824 11.0508L41.9922 11.4121C41.9922 12.2227 41.766 12.8737 41.3135 13.3652C40.861 13.8535 40.2539 14.0977 39.4922 14.0977C38.7305 14.0977 38.1217 13.8535 37.666 13.3652C37.2135 12.877 36.9873 12.2129 36.9873 11.373V11.3096ZM38.3984 11.4121C38.3984 11.9134 38.4928 12.2975 38.6816 12.5645C38.8704 12.8281 39.1406 12.96 39.4922 12.96C39.834 12.96 40.1009 12.8298 40.293 12.5693C40.485 12.3057 40.5811 11.8857 40.5811 11.3096C40.5811 10.818 40.485 10.4372 40.293 10.167C40.1009 9.89681 39.8307 9.76172 39.4824 9.76172C39.1374 9.76172 38.8704 9.89681 38.6816 10.167C38.4928 10.4339 38.3984 10.849 38.3984 11.4121ZM47.4561 12.0811L48.1494 8.7168H49.5117L48.1641 14H46.9824L45.9814 10.6748L44.9805 14H43.8037L42.4561 8.7168H43.8184L44.5068 12.0762L45.4736 8.7168H46.4941L47.4561 12.0811Z" fill="#F2E2B0"/>
</svg>
