<svg width="21" height="29" viewBox="0 0 21 29" fill="none" xmlns="http://www.w3.org/2000/svg">
<path d="M10.2246 5.28488e-09C7.51953 0.0215553 4.93137 1.10571 3.01854 3.01854C1.10571 4.93137 0.0215553 7.51953 0 10.2246C0 15.9141 8.90529 28.1176 10.2246 28.2001C11.5439 28.2825 20.5316 15.9141 20.5316 10.2246C20.5099 7.50531 19.4144 4.9048 17.4838 2.98965C15.5532 1.07451 12.944 -8.7016e-05 10.2246 5.28488e-09V5.28488e-09ZM10.2246 15.172C9.24609 15.172 8.28957 14.8818 7.47597 14.3382C6.66238 13.7946 6.02826 13.0219 5.65381 12.1179C5.27935 11.2139 5.18138 10.2191 5.37227 9.25941C5.56317 8.29971 6.03436 7.41817 6.72626 6.72626C7.41817 6.03436 8.29971 5.56317 9.25941 5.37227C10.2191 5.18138 11.2139 5.27935 12.1179 5.65381C13.0219 6.02826 13.7946 6.66238 14.3382 7.47597C14.8818 8.28957 15.172 9.24609 15.172 10.2246C15.172 11.5367 14.6507 12.7951 13.7229 13.7229C12.7951 14.6507 11.5367 15.172 10.2246 15.172Z" fill="#DD6956"/>
</svg>

