<svg width="43" height="35" viewBox="0 0 43 35" fill="none" xmlns="http://www.w3.org/2000/svg">
<path d="M7.83879 26.0722C8.08888 26.691 7.78996 27.3955 7.17113 27.6456C6.55231 27.8957 5.84788 27.5967 5.59778 26.9779L3.28683 21.2598C3.03674 20.641 3.33566 19.9366 3.95449 19.6865C4.57331 19.4364 5.27774 19.7353 5.52784 20.3541L7.83879 26.0722Z" fill="#4497BD"/>
<path d="M6.09719 19.9781L8.54795 25.8196L27.1603 24.0508L21.197 9.74049L6.09719 19.9781Z" fill="#4497BD"/>
<path d="M29.9573 22.7407C30.1643 23.2528 29.9168 23.8358 29.4048 24.0427C28.8927 24.2497 28.3097 24.0023 28.1028 23.4902L22.1067 8.65387C21.8997 8.14173 22.1471 7.5588 22.6592 7.35186C23.1713 7.1449 23.7542 7.39223 23.9612 7.90437L29.9573 22.7407Z" fill="#4497BD"/>
<path d="M26.8945 12.382C28.5162 11.7266 30.3623 12.51 31.0177 14.1317C31.6731 15.7533 30.8897 17.5994 29.268 18.2548L26.8945 12.382Z" fill="#4497BD"/>
<path d="M31.1099 5.21134C31.3644 5.32844 31.504 5.56836 31.4217 5.74724L28.7393 11.5753C28.6569 11.7542 28.3839 11.8041 28.1293 11.6871C27.8749 11.5699 27.7352 11.33 27.8176 11.1512L30.5001 5.32298C30.5824 5.14419 30.8554 5.09419 31.1099 5.21134Z" fill="#4497BD"/>
<path d="M37.292 20.455C37.1712 20.7078 36.9294 20.8439 36.7516 20.7591L30.9622 17.9941C30.7845 17.9092 30.7386 17.6355 30.8592 17.3826C30.9799 17.1299 31.2216 16.9937 31.3995 17.0785L37.1889 19.8435C37.3666 19.9285 37.4127 20.2022 37.292 20.455Z" fill="#4497BD"/>
<path d="M37.9191 11.1697C38.0284 11.4276 37.9698 11.699 37.7885 11.7758L31.8806 14.2773C31.6992 14.354 31.4638 14.207 31.3544 13.9491C31.2452 13.6913 31.3036 13.4198 31.485 13.343L37.393 10.8416C37.5743 10.7648 37.8098 10.9118 37.9191 11.1697Z" fill="#4497BD"/>
</svg>
