<svg width="84" height="22" viewBox="0 0 84 22" fill="none" xmlns="http://www.w3.org/2000/svg">
<path d="M7.69651 21.1089C5.47167 21.1089 3.54753 20.3216 2.07439 18.893C-0.0300392 16.8522 2.31948e-05 14.5488 2.31948e-05 10.5544C2.31948e-05 6.5601 -0.0300392 4.25679 2.07439 2.21582C3.54753 0.78716 5.47164 0 7.69651 0C11.635 0 14.5812 2.24497 15.3328 6.38509H12.0258C11.5147 4.28597 10.0716 2.82813 7.69651 2.82813C6.43372 2.82813 5.29137 3.2946 4.53965 4.08179C3.48754 5.18978 3.24696 6.38509 3.24696 10.5544C3.24696 14.7236 3.48754 15.9192 4.53965 17.027C5.29137 17.8143 6.43372 18.2808 7.69651 18.2808C10.0716 18.2808 11.5447 16.823 12.0559 14.7236H15.3328C14.6112 18.8638 11.5748 21.1089 7.69651 21.1089Z" fill="#4497BD"/>
<path d="M27.5092 20.934V19.5929C26.3968 20.6717 25.3446 21.1091 23.4505 21.1091C21.5564 21.1091 20.2938 20.6717 19.3618 19.7677C18.5801 18.9806 18.1592 17.8436 18.1592 16.5898C18.1592 14.1116 19.9331 12.333 23.4204 12.333H27.4491V11.2835C27.4491 9.41751 26.4871 8.51371 24.112 8.51371C22.4283 8.51371 21.6166 8.89269 20.7748 9.94234L18.7605 8.1055C20.2036 6.47274 21.7068 5.97704 24.2323 5.97704C28.4112 5.97704 30.5157 7.69721 30.5157 11.0502V20.934H27.5092ZM27.4491 14.4032H23.8714C22.0675 14.4032 21.1356 15.1904 21.1356 16.5315C21.1356 17.8728 22.0074 18.6308 23.9315 18.6308C25.1041 18.6308 25.9759 18.5433 26.7876 17.7853C27.2386 17.348 27.4491 16.6482 27.4491 15.5985V14.4032H27.4491Z" fill="#4497BD"/>
<path d="M39.3249 20.9342C36.4086 20.9342 35.146 19.0391 35.146 16.8524V0.175125H38.2126V16.6774C38.2126 17.8146 38.6335 18.3976 39.8661 18.3976H41.2189V20.9342H39.3249Z" fill="#4497BD"/>
<path d="M48.675 20.9342C45.7589 20.9342 44.4961 19.0391 44.4961 16.8524V0.175125H47.5627V16.6774C47.5627 17.8146 47.9836 18.3976 49.2161 18.3976H50.5692V20.9342H48.675Z" fill="#4497BD"/>
<path d="M60.8812 20.9342V0.175125H66.1426V20.9342H60.8812Z" fill="#4497BD"/>
<path d="M79.0695 20.9343V11.5461C79.0695 9.73846 77.7465 9.38861 77.0852 9.38861C76.4238 9.38861 75.101 9.73846 75.101 11.5461V20.9343H70.1704V5.24851H74.9807V6.53135C75.9728 5.56918 77.446 5.07351 78.7387 5.07351C80.272 5.07351 81.5048 5.56921 82.3766 6.41468C83.7595 7.75585 84 9.24284 84 10.9048V20.9343H79.0695Z" fill="#4497BD"/>
</svg>
