<svg width="84" height="23" viewBox="0 0 84 23" fill="none" xmlns="http://www.w3.org/2000/svg">
<path d="M7.69651 22.9218C5.47167 22.9218 3.54753 22.0872 2.07439 20.573C-0.0300392 18.4097 2.31948e-05 15.9683 2.31948e-05 11.7343C2.31948e-05 7.50049 -0.0300392 5.05906 2.07439 2.89569C3.54753 1.38136 5.47164 0.546997 7.69651 0.546997C11.635 0.546997 14.5812 2.92659 15.3328 7.31499H12.0258C11.5147 5.08999 10.0716 3.54473 7.69651 3.54473C6.43372 3.54473 5.29137 4.03917 4.53965 4.87356C3.48754 6.04799 3.24696 7.31499 3.24696 11.7343C3.24696 16.1536 3.48754 17.4208 4.53965 18.5951C5.29137 19.4296 6.43372 19.924 7.69651 19.924C10.0716 19.924 11.5447 18.3788 12.0559 16.1536H15.3328C14.6112 20.542 11.5748 22.9218 7.69651 22.9218Z" fill="#DD6956"/>
<path d="M27.5092 22.7364V21.3149C26.3968 22.4584 25.3446 22.922 23.4505 22.922C21.5564 22.922 20.2938 22.4584 19.3618 21.5002C18.5801 20.6659 18.1592 19.4607 18.1592 18.1317C18.1592 15.5049 19.9331 13.6196 23.4204 13.6196H27.4491V12.5071C27.4491 10.5293 26.4871 9.57127 24.112 9.57127C22.4283 9.57127 21.6166 9.97297 20.7748 11.0856L18.7605 9.13858C20.2036 7.4079 21.7068 6.88248 24.2323 6.88248C28.4112 6.88248 30.5157 8.7058 30.5157 12.2598V22.7364H27.5092ZM27.4491 15.8139H23.8714C22.0675 15.8139 21.1356 16.6483 21.1356 18.0699C21.1356 19.4916 22.0074 20.2951 23.9315 20.2951C25.1041 20.2951 25.9759 20.2023 26.7876 19.3988C27.2386 18.9353 27.4491 18.1935 27.4491 17.0809V15.8139H27.4491Z" fill="#DD6956"/>
<path d="M39.3249 22.736C36.4086 22.736 35.146 20.7272 35.146 18.4094V0.732056H38.2126V18.2239C38.2126 19.4293 38.6335 20.0472 39.8661 20.0472H41.2189V22.736H39.3249Z" fill="#DD6956"/>
<path d="M48.675 22.736C45.7589 22.736 44.4961 20.7272 44.4961 18.4094V0.732056H47.5627V18.2239C47.5627 19.4293 47.9836 20.0472 49.2161 20.0472H50.5692V22.736H48.675Z" fill="#DD6956"/>
<path d="M60.8812 22.736V0.732056H66.1426V22.736H60.8812Z" fill="#DD6956"/>
<path d="M79.0695 22.7367V12.7855C79.0695 10.8694 77.7465 10.4986 77.0852 10.4986C76.4238 10.4986 75.101 10.8694 75.101 12.7855V22.7367H70.1704V6.11024H74.9807V7.47001C75.9728 6.45014 77.446 5.92474 78.7387 5.92474C80.272 5.92474 81.5048 6.45017 82.3766 7.34634C83.7595 8.76793 84 10.3441 84 12.1057V22.7367H79.0695Z" fill="#DD6956"/>
</svg>
