<svg width="41" height="31" viewBox="0 0 41 31" fill="none" xmlns="http://www.w3.org/2000/svg">
<path d="M6.83879 24.0722C7.08888 24.691 6.78996 25.3955 6.17113 25.6456C5.55231 25.8957 4.84788 25.5967 4.59778 24.9779L2.28683 19.2598C2.03674 18.641 2.33566 17.9366 2.95449 17.6865C3.57331 17.4364 4.27774 17.7353 4.52784 18.3541L6.83879 24.0722Z" fill="#4497BD"/>
<path d="M5.09719 17.9781L7.54795 23.8196L26.1603 22.0508L20.197 7.74049L5.09719 17.9781Z" fill="#4497BD"/>
<path d="M28.9573 20.7407C29.1643 21.2528 28.9168 21.8358 28.4048 22.0427C27.8927 22.2497 27.3097 22.0023 27.1028 21.4902L21.1067 6.65387C20.8997 6.14173 21.1471 5.5588 21.6592 5.35186C22.1713 5.1449 22.7542 5.39223 22.9612 5.90437L28.9573 20.7407Z" fill="#4497BD"/>
<path d="M25.8945 10.382C27.5162 9.72662 29.3623 10.51 30.0177 12.1317C30.6731 13.7533 29.8897 15.5994 28.268 16.2548L25.8945 10.382Z" fill="#4497BD"/>
<path d="M30.1099 3.21134C30.3644 3.32844 30.504 3.56836 30.4217 3.74724L27.7393 9.57527C27.6569 9.75421 27.3839 9.80411 27.1293 9.68706C26.8749 9.56991 26.7352 9.32999 26.8176 9.15119L29.5001 3.32298C29.5824 3.14419 29.8554 3.09419 30.1099 3.21134Z" fill="#4497BD"/>
<path d="M36.292 18.455C36.1712 18.7078 35.9294 18.8439 35.7516 18.7591L29.9622 15.9941C29.7845 15.9092 29.7386 15.6355 29.8592 15.3826C29.9799 15.1299 30.2216 14.9937 30.3995 15.0785L36.1889 17.8435C36.3666 17.9285 36.4127 18.2022 36.292 18.455Z" fill="#4497BD"/>
<path d="M36.9191 9.16967C37.0284 9.42764 36.9698 9.69904 36.7885 9.77577L30.8806 12.2773C30.6992 12.354 30.4638 12.207 30.3544 11.9491C30.2452 11.6913 30.3036 11.4198 30.485 11.343L36.393 8.84155C36.5743 8.76475 36.8098 8.91179 36.9191 9.16967Z" fill="#4497BD"/>
</svg>
