<svg width="132" height="34" viewBox="0 0 132 34" fill="none" xmlns="http://www.w3.org/2000/svg">
<path d="M12.4449 33.9998C8.96967 33.9998 5.96414 32.7316 3.66307 30.4306C0.37593 27.1435 0.422888 23.4335 0.422888 16.9998C0.422888 10.5662 0.37593 6.85634 3.66307 3.56898C5.96414 1.26786 8.96962 0 12.4449 0C18.5968 0 23.1988 3.61593 24.373 10.2844H19.2072C18.4089 6.90334 16.1548 4.55522 12.4449 4.55522C10.4724 4.55522 8.68805 5.30655 7.51384 6.57446C5.87044 8.35908 5.49465 10.2844 5.49465 16.9998C5.49465 23.7151 5.87044 25.6407 7.51384 27.4251C8.68805 28.6931 10.4724 29.4445 12.4449 29.4445C16.1548 29.4445 18.4559 27.0964 19.2543 23.7151H24.373C23.2458 30.3836 18.5029 33.9998 12.4449 33.9998Z" fill="#DD6956"/>
<path d="M43.3925 33.7181V31.558C41.6549 33.2956 40.0113 34 37.0527 34C34.0941 34 32.1219 33.2956 30.6662 31.8396C29.4451 30.5718 28.7876 28.7404 28.7876 26.7209C28.7876 22.7294 31.5584 19.8645 37.0058 19.8645H43.2986V18.1741C43.2986 15.1686 41.7959 13.7129 38.0859 13.7129C35.4561 13.7129 34.1882 14.3233 32.8733 16.014L29.7268 13.0554C31.981 10.4255 34.3291 9.62712 38.2738 9.62712C44.8013 9.62712 48.0887 12.3978 48.0887 17.7983V33.7181H43.3925ZM43.2986 23.1989H37.7101C34.8925 23.1989 33.4368 24.4669 33.4368 26.627C33.4368 28.7874 34.7986 30.0083 37.8041 30.0083C39.6357 30.0083 40.9975 29.8673 42.2653 28.6464C42.9698 27.9421 43.2986 26.8149 43.2986 25.1242V23.1989H43.2986Z" fill="#DD6956"/>
<path d="M61.8488 33.7183C57.2935 33.7183 55.3213 30.6658 55.3213 27.1439V0.282059H60.1114V26.862C60.1114 28.6936 60.7688 29.6326 62.6941 29.6326H64.8073V33.7183H61.8488Z" fill="#DD6956"/>
<path d="M76.4537 33.7183C71.8988 33.7183 69.9263 30.6658 69.9263 27.1439V0.282059H74.7163V26.862C74.7163 28.6936 75.3738 29.6326 77.299 29.6326H79.4125V33.7183H76.4537Z" fill="#DD6956"/>
<path d="M95.52 33.7183V0.282059H103.738V33.7183H95.52Z" fill="#DD6956"/>
<path d="M123.931 33.7185V18.5971C123.931 15.6855 121.864 15.122 120.831 15.122C119.798 15.122 117.732 15.6855 117.732 18.5971V33.7185H110.03V8.45366H117.544V10.5199C119.094 8.97016 121.395 8.17178 123.414 8.17178C125.809 8.17178 127.735 8.9702 129.096 10.332C131.257 12.4922 131.632 14.8872 131.632 17.5641V33.7185H123.931Z" fill="#DD6956"/>
</svg>
