<svg width="30" height="29" viewBox="0 0 30 29" fill="none" xmlns="http://www.w3.org/2000/svg">
<path d="M14.8014 27.7688C12.0718 27.7688 9.40341 26.9839 7.13378 25.5132C4.86414 24.0425 3.09518 21.9521 2.05058 19.5064C1.00598 17.0607 0.732665 14.3696 1.2652 11.7733C1.79773 9.17693 3.11219 6.79206 5.04235 4.92021C6.97252 3.04837 9.4317 1.77362 12.1089 1.25718C14.7861 0.740743 17.5611 1.0058 20.083 2.01883C22.6049 3.03187 24.7604 4.74738 26.2769 6.94844C27.7934 9.1495 28.6029 11.7372 28.6029 14.3844C28.5827 17.9282 27.1222 21.3212 24.5383 23.8271C21.9544 26.3329 18.4556 27.7493 14.8014 27.7688V27.7688Z" stroke="#DD6956" stroke-width="2" stroke-miterlimit="10"/>
<path d="M22.6989 24.6382C22.4442 23.2197 22.0593 21.8262 21.5488 20.4741C20.4754 18.0947 18.7885 18.5408 16.8717 17.4255C16.7183 16.9793 16.565 16.7562 16.795 16.3101C19.3252 16.3845 20.092 14.005 19.9386 10.8076C19.7853 7.61023 18.3285 5.23077 14.8014 5.30513C14.0827 5.31266 13.3734 5.46422 12.7179 5.75029C12.0625 6.03636 11.4751 6.45077 10.9927 6.96748C10.5103 7.4842 10.1433 8.09206 9.91465 8.75291C9.68603 9.41375 9.60078 10.1133 9.66424 10.8076C9.97094 13.5589 11.5811 15.3434 13.4213 15.9383C13.5103 16.3796 13.5616 16.8273 13.5746 17.2768C13.5746 17.3511 13.3446 17.4998 13.0379 17.7229C10.9677 18.6152 9.43422 18.3178 8.66747 19.8049C7.90072 21.2921 7.90072 23.4485 7.44067 25.5305" stroke="#DD6956" stroke-width="1.5" stroke-linecap="round" stroke-linejoin="round"/>
</svg>
