<svg width="29" height="29" viewBox="0 0 29 29" fill="none" xmlns="http://www.w3.org/2000/svg">
<circle cx="14.5" cy="14.5" r="14.5" fill="#DD6956"/>
<path d="M13.7853 25C12.2222 25 11.4407 24.3072 11.4407 22.9215C11.4407 21.518 12.2222 20.8163 13.7853 20.8163C15.3672 20.8163 16.1582 21.518 16.1582 22.9215C16.1582 24.3072 15.3672 25 13.7853 25ZM13.9266 6C17.9755 6 20 7.49229 20 10.4769V12.7153C20 14.172 19.6704 15.2557 19.0113 15.9663C18.3522 16.6592 17.2411 17.0056 15.678 17.0056L15.4802 18.8177H12.0056L11.8079 14.0743H13.4746C14.3785 14.0743 15.0094 13.9766 15.3672 13.7812C15.725 13.5858 15.904 13.2038 15.904 12.6353V10.9032C15.904 10.4413 15.7721 10.1127 15.5085 9.91725C15.2637 9.72183 14.7834 9.62412 14.0678 9.62412C12.4482 9.62412 11.0923 9.84619 10 10.2903V6.50631C11.0734 6.16877 12.3823 6 13.9266 6Z" fill="#F2E2B0"/>
</svg>
