<svg width="29" height="29" viewBox="0 0 29 29" fill="none" xmlns="http://www.w3.org/2000/svg">
<path d="M18.3356 3.9791C16.9441 2.58538 15.1773 1.62651 13.2504 1.21934C11.3235 0.81216 9.31983 0.974263 7.48346 1.68589C5.6471 2.39751 4.05737 3.62793 2.90803 5.2272C1.75868 6.82647 1.09935 8.72553 1.01037 10.693C0.92139 12.6604 1.40661 14.6112 2.4069 16.3077C3.40719 18.0042 4.87936 19.3731 6.64399 20.2476C8.40862 21.122 10.3895 21.4643 12.3453 21.2328C14.3011 21.0012 16.1472 20.2057 17.6588 18.9433L26.4569 27.7414C26.6264 27.9109 26.8563 28.0061 27.0961 28.0061C27.3358 28.0061 27.5657 27.9109 27.7352 27.7414C27.9048 27.5718 28 27.3419 28 27.1022C28 26.8624 27.9048 26.6325 27.7352 26.463L18.9372 17.665C20.5639 15.7206 21.4042 13.2379 21.2929 10.7053C21.1815 8.17261 20.1266 5.77326 18.3356 3.9791ZM17.5085 17.5146C16.2452 18.7734 14.6373 19.6297 12.8878 19.9754C11.1382 20.321 9.32546 20.1405 7.67843 19.4566C6.0314 18.7727 4.62395 17.6161 3.6338 16.1328C2.64366 14.6496 2.11522 12.9062 2.11522 11.1228C2.11522 9.33944 2.64366 7.59606 3.6338 6.1128C4.62395 4.62955 6.0314 3.47296 7.67843 2.78906C9.32546 2.10516 11.1382 1.92463 12.8878 2.27028C14.6373 2.61592 16.2452 3.47222 17.5085 4.73107C18.3497 5.5694 19.0172 6.56554 19.4726 7.66238C19.9281 8.75922 20.1625 9.93518 20.1625 11.1228C20.1625 12.3105 19.9281 13.4864 19.4726 14.5832C19.0172 15.6801 18.3497 16.6762 17.5085 17.5146Z" fill="#4497BD" stroke="#4497BD"/>
</svg>
