<svg width="29" height="29" viewBox="0 0 29 29" fill="none" xmlns="http://www.w3.org/2000/svg">
<circle cx="14.5" cy="14.5" r="14.5" fill="#DD6956"/>
<path d="M8.17003 17.7533C9.75716 17.7533 11.0438 16.4667 11.0438 14.8796C11.0438 13.2924 9.75716 12.0058 8.17003 12.0058C6.58289 12.0058 5.29626 13.2924 5.29626 14.8796C5.29626 16.4667 6.58289 17.7533 8.17003 17.7533Z" fill="#F2E2B0"/>
<path d="M19.1262 12.0507C20.7133 12.0507 22 10.7641 22 9.17699C22 7.58985 20.7133 6.30322 19.1262 6.30322C17.5391 6.30322 16.2524 7.58985 16.2524 9.17699C16.2524 10.7641 17.5391 12.0507 19.1262 12.0507Z" fill="#F2E2B0"/>
<path d="M19.0813 23.0967C20.6684 23.0967 21.955 21.8101 21.955 20.223C21.955 18.6358 20.6684 17.3492 19.0813 17.3492C17.4941 17.3492 16.2075 18.6358 16.2075 20.223C16.2075 21.8101 17.4941 23.0967 19.0813 23.0967Z" fill="#F2E2B0"/>
<path d="M17.3301 9.98518L8.93335 15.0592L18.7221 20.1332" stroke="#F2E2B0" stroke-width="1.5" stroke-miterlimit="10"/>
</svg>
