<svg width="52" height="50" viewBox="0 0 52 50" fill="none" xmlns="http://www.w3.org/2000/svg">
<path d="M34.1074 16.1259H31.1175C31.0067 15.2573 30.5812 14.4594 29.9217 13.8834C29.2622 13.3073 28.4143 12.9931 27.5387 13.0001H23.4162C22.5456 12.9943 21.7035 13.3101 21.0514 13.887C20.3993 14.4638 19.9831 15.2611 19.8827 16.1259H16.8475C16.2071 16.1259 15.5731 16.2528 14.982 16.4992C14.3909 16.7456 13.8545 17.1067 13.4038 17.5616C12.9531 18.0166 12.597 18.5563 12.3561 19.1496C12.1152 19.743 11.9942 20.3782 12.0002 21.0185V28.8104C11.9942 29.4507 12.1152 30.0859 12.3561 30.6793C12.597 31.2726 12.9531 31.8123 13.4038 32.2673C13.8545 32.7222 14.3909 33.0833 14.982 33.3297C15.5731 33.5761 16.2071 33.703 16.8475 33.703H34.1074C35.405 33.703 36.6495 33.1875 37.567 32.27C38.4845 31.3524 39 30.108 39 28.8104V21.0185C39 19.7209 38.4845 18.4765 37.567 17.5589C36.6495 16.6414 35.405 16.1259 34.1074 16.1259V16.1259Z" stroke="#DD6956" stroke-width="2" stroke-miterlimit="10"/>
<path d="M25.5 30.7131C28.6524 30.7131 31.208 28.1575 31.208 25.005C31.208 21.8526 28.6524 19.297 25.5 19.297C22.3476 19.297 19.792 21.8526 19.792 25.005C19.792 28.1575 22.3476 30.7131 25.5 30.7131Z" stroke="#DD6956" stroke-width="2" stroke-miterlimit="10"/>
<path d="M25.7478 49C20.8531 49 16.0684 47.5924 11.9987 44.9553C7.92891 42.3181 4.75692 38.5698 2.88382 34.1844C1.01072 29.799 0.520635 24.9734 1.47553 20.3178C2.43043 15.6623 4.78743 11.3859 8.24846 8.02945C11.7095 4.67299 16.1191 2.38721 20.9197 1.46116C25.7203 0.535119 30.6963 1.0104 35.2183 2.8269C39.7404 4.6434 43.6055 7.71954 46.3248 11.6663C49.0441 15.6131 50.4955 20.2533 50.4955 25C50.4594 31.3544 47.8405 37.4386 43.2072 41.9319C38.5739 46.4252 32.3002 48.965 25.7478 49V49Z" stroke="#DD6956" stroke-width="2" stroke-miterlimit="10"/>
</svg>
